<?xml version="1.0" encoding="UTF-8"?>
<svg xmlns="http://www.w3.org/2000/svg" width="180" height="112" viewBox="0 0 180 112" role="img" aria-labelledby="title desc">
  <title id="title">Clear Mirror project mark</title>
  <desc id="desc">A blue reflective mirror and independent judge mark for evidence-based AI review.</desc>
  <defs>
    <linearGradient id="mirror-bg" x1="0" y1="0" x2="1" y2="1">
      <stop offset="0" stop-color="#111f3d"/>
      <stop offset="1" stop-color="#070c17"/>
    </linearGradient>
    <linearGradient id="mirror-glass" x1="0" y1="0" x2="1" y2="1">
      <stop offset="0" stop-color="#dbeafe"/>
      <stop offset=".42" stop-color="#60a5fa"/>
      <stop offset="1" stop-color="#1d4ed8"/>
    </linearGradient>
    <filter id="mirror-shadow" x="-30%" y="-30%" width="160%" height="170%">
      <feDropShadow dx="0" dy="5" stdDeviation="5" flood-color="#000" flood-opacity=".48"/>
    </filter>
  </defs>
  <rect x="1" y="1" width="178" height="110" rx="18" fill="url(#mirror-bg)" stroke="#60a5fa" stroke-opacity=".72"/>
  <path d="M12 83h156" stroke="#60a5fa" stroke-opacity=".2"/>
  <g filter="url(#mirror-shadow)">
    <rect x="16" y="18" width="70" height="58" rx="12" fill="#050b16" stroke="#8fc7ff" stroke-width="1.8"/>
    <path d="M51 20a33 33 0 0 1 0 54L29 47z" fill="url(#mirror-glass)" opacity=".95"/>
    <path d="M51 25a28 28 0 0 0 0 44" fill="none" stroke="#eff6ff" stroke-width="1.3" opacity=".9"/>
    <path d="M51 30v36M28 47h46" stroke="#bfdbfe" stroke-width="1.2" opacity=".9"/>
    <path d="M32 47c7-9 16-9 19 0-3 9-12 9-19 0Z" fill="#07152a" stroke="#f0f7ff" stroke-width="1.4"/>
    <circle cx="46" cy="47" r="3.1" fill="#60a5fa"/>
    <path d="m59 53 4 4 8-10" fill="none" stroke="#f0f7ff" stroke-width="2.4" stroke-linecap="round" stroke-linejoin="round"/>
  </g>
  <g fill="none" stroke="#93c5fd" stroke-linecap="round">
    <path d="M98 28h54M98 40h39M98 52h48" stroke-width="2" opacity=".62"/>
    <path d="M98 66h27" stroke-width="1.5" opacity=".46"/>
  </g>
  <circle cx="101" cy="28" r="3" fill="#dbeafe"/><circle cx="101" cy="40" r="3" fill="#60a5fa"/><circle cx="101" cy="52" r="3" fill="#2563eb"/>
  <text x="98" y="82" fill="#eff6ff" font-family="Segoe UI,Arial,sans-serif" font-size="10.5" font-weight="700" letter-spacing="1.3">CLEAR MIRROR</text>
  <text x="98" y="98" fill="#8bbcf4" font-family="Segoe UI,Arial,sans-serif" font-size="7.3" font-weight="600" letter-spacing=".35">JUDGE BEFORE DELIVERY</text>
</svg>
