<?xml version="1.0" encoding="UTF-8"?>
<svg xmlns="http://www.w3.org/2000/svg" width="180" height="132" viewBox="0 0 126 126" role="img" aria-labelledby="title desc">
  <title id="title">GTA-MANUCHO project mark</title>
  <desc id="desc">A neon open-world browser game experiment.</desc>
  <g transform="translate(0 0) scale(1.0)"><rect x="0" y="0" width="126" height="126" rx="28" fill="#261322" stroke="#ff8d47" stroke-width="2.4"/>
        <circle cx="63" cy="61" r="43" fill="#ef4f8d" opacity=".8"/>
        <circle cx="63" cy="61" r="34" fill="#25142a" stroke="#ffda67" stroke-width="2"/>
        <path d="M29 75 48 58l12 8 13-16 24 25z" fill="#ff8d47" opacity=".88"/>
        <path d="M29 87h68l-20 25H49z" fill="#16141d"/>
        <path d="M48 83h31l7 11H41z" fill="#f6a23c"/>
        <rect x="38" y="43" width="7" height="25" fill="#ffd45d"/><rect x="48" y="35" width="8" height="33" fill="#ff6c68"/>
        <rect x="87" y="40" width="7" height="28" fill="#7ce3ff"/>
        <path d="M51 88h25l5 7H46z" fill="#e8f3ff"/><circle cx="53" cy="98" r="4" fill="#111318"/><circle cx="75" cy="98" r="4" fill="#111318"/></g>
</svg>
