<?xml version="1.0" encoding="UTF-8"?>
<svg xmlns="http://www.w3.org/2000/svg" width="180" height="132" viewBox="0 0 126 126" role="img" aria-labelledby="title desc">
  <title id="title">Wife project mark</title>
  <desc id="desc">Local-first memory and project continuity for AI coding agents.</desc>
  <g transform="translate(0 0) scale(1.0)"><rect x="0" y="0" width="126" height="126" rx="28" fill="#281123" stroke="#f25f91" stroke-width="2.4"/>
        <path d="M63 103C20 79 17 37 39 31c11-3 20 3 24 13 5-10 14-16 25-13 22 6 19 48-25 72z" fill="#f25f91" stroke="#ffe7ef" stroke-width="2.5"/>
        <path d="M40 62c13-14 33-14 46 0" fill="none" stroke="#ffb0c4" stroke-width="6" stroke-linecap="round"/>
        <circle cx="49" cy="51" r="4" fill="#281123"/><circle cx="77" cy="51" r="4" fill="#281123"/>
        <circle cx="18" cy="31" r="4" fill="#ffb0c4"/><circle cx="108" cy="89" r="4" fill="#ffb0c4"/>
        <path d="M16 91h22M88 30h22" stroke="#ffb0c4" stroke-width="2"/></g>
</svg>
