<?xml version="1.0" encoding="UTF-8"?>
<svg xmlns="http://www.w3.org/2000/svg" width="180" height="132" viewBox="0 0 126 126" role="img" aria-labelledby="title desc">
  <title id="title">Wonder Woman project mark</title>
  <desc id="desc">Adversarial evidence review before an answer is trusted.</desc>
  <g transform="translate(0 0) scale(1.0)"><rect x="0" y="0" width="126" height="126" rx="28" fill="#271511" stroke="#e8b936" stroke-width="2.4"/>
        <polygon points="63,12 70,43 101,32 76,52 105,66 73,66 83,100 63,78 43,100 53,66 21,66 50,52 25,32 56,43" fill="#e8b936" stroke="#fff0aa" stroke-width="2"/>
        <circle cx="63" cy="61" r="16" fill="#271511" stroke="#e74c5d" stroke-width="3"/>
        <path d="M47 91h32M63 78v25M38 102h50" stroke="#e74c5d" stroke-width="3" stroke-linecap="round"/>
        <circle cx="17" cy="30" r="5" fill="#e74c5d"/><circle cx="109" cy="30" r="5" fill="#e74c5d"/><circle cx="17" cy="96" r="5" fill="#e8b936"/><circle cx="109" cy="96" r="5" fill="#e8b936"/></g>
</svg>
